{"title":"Love Yatri 2018 Hindi 720p PRE DVDRip x264 [MW]","magnet":"magnet:?xt=urn:btih:25924b4674979a6317f3de4301716bf6551c9d97&dn=Love+Yatri+2018+Hindi+720p+PRE+DVDRip+x264+%5BMW%5D&tr=udp%3A%2F%2Ftracker.leechers-paradise.org%3A6969&tr=udp%3A%2F%2Fzer0day.ch%3A1337&tr=udp%3A%2F%2Fopen.demonii.com%3A1337&tr=udp%3A%2F%2Ftracker.coppersurfer.tk%3A6969&tr=udp%3A%2F%2Fexodus.desync.com%3A6969","uploader":"MFreaky","categoryP":"video","categoryS":"movies","size":"1385048938","seeders":"14","leechers":"65","description":" <a href=\"https://pichub.site/image/Eqm7V\" rel=\"nofollow\" target=\"_NEW\">https://pichub.site/image/Eqm7V</a> <a href=\"\nhttps://pichub.site/image/EquGT\" rel=\"nofollow\" target=\"_NEW\">\nhttps://pichub.site/image/EquGT</a> <a href=\"\nhttps://pichub.site/image/EqGZN\" rel=\"nofollow\" target=\"_NEW\">\nhttps://pichub.site/image/EqGZN</a> <a href=\"\nhttps://pichub.site/image/EqvAZ\" rel=\"nofollow\" target=\"_NEW\">\nhttps://pichub.site/image/EqvAZ</a> <a href=\"\nhttps://pichub.site/image/EqUOD\" rel=\"nofollow\" target=\"_NEW\">\nhttps://pichub.site/image/EqUOD</a>\r\n\r\nIMDB <a href=\"\nhttps://www.imdb.com/title/tt7820846/\" rel=\"nofollow\" target=\"_NEW\">\nhttps://www.imdb.com/title/tt7820846/</a>\r\n\r\nVideo\r\nFormat                                   : AVC\r\nFormat/Info                              : Advanced Video Codec\r\nFormat profile                           : High@L4.1\r\nFormat settings                          : CABAC / 4 Ref Frames\r\nFormat settings, CABAC                   : Yes\r\nFormat settings, RefFrames               : 4 frames\r\nCodec ID                                 : V_MPEG4/ISO/AVC\r\nDuration                                 : 2 h 7 min\r\nBit rate                                 : 1 300 kb/s\r\nWidth                                    : 1 280 pixels\r\nHeight                                   : 520 pixels\r\nDisplay aspect ratio                     : 2.462\r\nFrame rate mode                          : Constant\r\nFrame rate                               : 25.000 FPS\r\nColor space                              : YUV\r\nChroma subsampling                       : 4:2:0\r\nBit depth                                : 8 bits\r\nBits/(Pixel*Frame)                       : 0.078\r\nStream size                              : 1.17 GiB (91%)\r\nWriting library                          : x264 core 155 r2901 7d0ff22\r\n\r\nAudio\r\nFormat                                   : AAC\r\nFormat/Info                              : Advanced Audio Codec\r\nFormat profile                           : LC\r\nCodec ID                                 : A_AAC-2\r\nDuration                                 : 2 h 7 min\r\nBit rate                                 : 128 kb/s\r\nChannel(s)                               : 2 channels\r\nChannel positions                        : Front: L R\r\nSampling rate                            : 48.0 kHz\r\nFrame rate                               : 46.875 FPS (1024 SPF)\r\nStream size                              : 117 MiB (9%)\r\nLanguage                                 : Hindi","last_updated":"2018-10-07T12:13:11.616Z","parsed":{"xt":"urn:btih:25924b4674979a6317f3de4301716bf6551c9d97","dn":"Love Yatri 2018 Hindi 720p PRE DVDRip x264 [MW]","tr":["udp://exodus.desync.com:6969","udp://open.demonii.com:1337","udp://tracker.coppersurfer.tk:6969","udp://tracker.leechers-paradise.org:6969","udp://zer0day.ch:1337"],"infoHash":"25924b4674979a6317f3de4301716bf6551c9d97","infoHashBuffer":{"type":"Buffer","data":[37,146,75,70,116,151,154,99,23,243,222,67,1,113,107,246,85,28,157,151]},"name":"Love Yatri 2018 Hindi 720p PRE DVDRip x264 [MW]","announce":["udp://exodus.desync.com:6969","udp://open.demonii.com:1337","udp://tracker.coppersurfer.tk:6969","udp://tracker.leechers-paradise.org:6969","udp://zer0day.ch:1337"],"urlList":[]}}